<?xml version="1.0" encoding="utf-8"?>
<svg version="1.1" id="Capa_1" xmlns="http://www.w3.org/2000/svg" xmlns:xlink="http://www.w3.org/1999/xlink" x="0px" y="0px"
	 viewBox="0 0 169 169" style="enable-background:new 0 0 169 169;" xml:space="preserve">
<style type="text/css">
	.st0{fill:#FFFFFF;}
</style>
<path id="XMLID_32_" class="st0" d="M169,13.9C169,6.2,162.8,0,155.1,0H13.9C6.2,0,0,6.2,0,13.9v141.1c0,7.7,6.2,13.9,13.9,13.9
	h141.1c7.7,0,13.9-6.2,13.9-13.9V13.9z M33.8,145.1c-11.5,0-19.1-12.6-14.3-23.7l39.1-91.7l13.2,30.8l-22.5,54
	c-1.1,2.6,0.7,5.5,3.3,5.5l44.6,0l10.7,25.1L33.8,145.1z M148.2,47.7L125,100l19.3,45.1l-26,0L99.1,100l20-45.5
	c1.2-2.6-0.6-5.6-3.3-5.6l-38.6,0.1L66.5,24h67.9C145.9,24,153.1,36.7,148.2,47.7z"/>
</svg>
