<?xml version="1.0" encoding="utf-8"?>
<svg version="1.1" id="Capa_1" xmlns="http://www.w3.org/2000/svg" xmlns:xlink="http://www.w3.org/1999/xlink" x="0px" y="0px"
	 viewBox="0 0 169 169" style="enable-background:new 0 0 169 169;" xml:space="preserve">
<style type="text/css">
	.st0{fill:#282828;}
</style>
<g id="XMLID_46_">
	<path id="XMLID_48_" class="st0" d="M94.5,113.6c-5,5.5-12.1,8.5-19.7,8.5l-24.1-0.2c-5.6,0-9.4-5.8-7.1-11L68.4,54L52.7,18.2
		c-3.4,3.4-6.2,7.4-8.2,11.9L4.6,120.6C-2.2,136.1,9.1,154,26,154H112L94.5,113.6z"/>
	<path id="XMLID_47_" class="st0" d="M142.2,8h-62C74.9,8,69.7,8.5,65,10.5L78.9,41c4.2-2.7,9.1-5,14.3-5h24.6
		c5.7,0,9.4,6.4,7.1,11.6l-21.6,49.4L128,154h34.7l-24.3-56.1l25.2-57.7C170.4,24.8,159,8,142.2,8z"/>
</g>
</svg>
