<?xml version="1.0" encoding="utf-8"?>
<svg version="1.1" id="Capa_1" xmlns="http://www.w3.org/2000/svg" xmlns:xlink="http://www.w3.org/1999/xlink" x="0px" y="0px"
	 viewBox="0 0 167.9 150" style="enable-background:new 0 0 167.9 150;" xml:space="preserve">
<style type="text/css">
	.st0{fill:#ED2626;}
	.st1{fill:#73ABDD;}
	.st2{fill:#AFE2FD;}
	.st3{fill:#D6A38C;}
	.st4{fill:#D59ACA;}
	.st5{fill:#DCDCDC;}
	.st6{fill:#282828;}
</style>
<path id="XMLID_72_" class="st0" d="M-302.4,1448.1"/>
<rect id="XMLID_40_" x="398.2" y="-75.2" class="st1" width="40.4" height="48.8"/>
<rect id="XMLID_39_" x="461.7" y="-72.2" class="st2" width="45.8" height="56.3"/>
<rect id="XMLID_38_" x="390.8" y="-1.3" class="st3" width="23.8" height="34.9"/>
<rect id="XMLID_37_" x="445.5" y="10.1" class="st4" width="32.2" height="33.3"/>
<rect id="XMLID_36_" x="329.2" y="-94.8" class="st5" width="45.5" height="39.7"/>
<rect id="XMLID_7_" x="416.4" y="-157.9" class="st6" width="98.5" height="60.6"/>
<path id="XMLID_177_" class="st6" d="M731.9,1151H529.1c-50.6,0-96.5,30.1-117,76.4l-130.3,295c-22.4,50.5,14.7,107.6,69.9,107.6
	h205.4c51,0,97.1-30.4,117.4-77.2l127.6-294.7C824,1207.7,787,1151,731.9,1151z M675.2,1287l-84.3,189.4
	c-14,31.5-45.3,51.8-79.8,51.7l-78.7-0.1c-18.4,0-30.7-18.9-23.3-35.8l82.7-188.9c13.9-31.7,45.2-52.2,79.8-52.2h80.3
	C670.4,1251,682.8,1270.1,675.2,1287z"/>
<g id="XMLID_60_">
	<path id="XMLID_67_" class="st6" d="M559.6,873.5C543.3,891.4,520,902,495,902l-78.7-0.2c-18.4,0-30.7-18.9-23.3-35.8l81.4-186
		l-51.5-117c-11.1,11-20.3,24.1-26.9,39L265.6,896.4C243.3,947,280.3,1004,335.5,1004H617L559.6,873.5z"/>
	<path id="XMLID_75_" class="st6" d="M715.7,526H512.9c-17.4,0-34.2,3.5-49.7,10l45.2,102.7c13.7-8.8,29.9-13.7,46.9-13.7h80.3
		c18.5,0,30.9,19.1,23.3,36l-70.8,159l81.1,184.1H783l-79.4-181.7l82.3-189.7C807.8,582.1,770.8,526,715.7,526z"/>
</g>
<path id="XMLID_70_" class="st0" d="M-222.7,1630"/>
<path id="XMLID_73_" class="st0" d="M-302.4,1448.1"/>
<g id="XMLID_34_">
	<path id="XMLID_41_" class="st6" d="M94.6,109.2c-5.1,5.6-12.5,9.1-20.3,9.1l-24.8,0c-5.8,0-9.7-5.9-7.3-11.2l25.6-58.5L51.6,11.6
		c-3.5,3.5-6.4,7.6-8.5,12.3l-41,92.5c-7,15.9,4.6,33.6,22,33.6h88.6L94.6,109.2z"/>
	<path id="XMLID_35_" class="st6" d="M143.8,0H79.9c-5.5,0-10.8,1.1-15.6,3.1l14.2,32.3C82.9,32.6,88,31,93.3,31h25.3
		c5.8,0,9.7,6.1,7.3,11.4l-22.3,49.8l25.5,57.8h35.8l-25-57l25.9-59.6C172.7,17.6,161.1,0,143.8,0z"/>
</g>
</svg>
