<?xml version="1.0" encoding="utf-8"?>
<!-- Generator: Adobe Illustrator 19.0.0, SVG Export Plug-In . SVG Version: 6.00 Build 0)  -->
<svg version="1.1" id="Capa_1" xmlns="http://www.w3.org/2000/svg" xmlns:xlink="http://www.w3.org/1999/xlink" x="0px" y="0px"
	 viewBox="-257.7 409.6 245 30.7" style="enable-background:new -257.7 409.6 245 30.7;" xml:space="preserve">
<style type="text/css">
	.st0{fill:#BD4136;}
	.st1{fill:#FFFFFF;}
	.st2{fill:#1E1E1E;}
	.st3{fill:#A98A58;}
</style>
<polygon id="XMLID_22_" class="st0" points="-115.8,417.8 -114.6,436.8 -129.5,436.8 -130.5,418.5 "/>
<polygon id="XMLID_9_" class="st1" points="-126.1,431.4 -126.1,422.3 -119.7,421.6 -118.8,431.4 "/>
<polygon id="XMLID_21_" class="st0" points="-256.9,432.7 -255.6,439.5 -237.1,439.5 -237.9,423.5 -252.1,424.6 -251.9,416.8 
	-240.3,415.9 -240.2,418.4 -237.1,418.2 -236.5,411.1 -256.9,411.7 -257.7,428.6 -243.9,428 -243.4,435.5 -252.3,436 -253,432.9 "/>
<polygon id="XMLID_20_" class="st0" points="-256.9,432.7 -255.6,439.5 -237.1,439.5 -237.9,423.5 -252.1,424.6 -251.9,416.8 
	-240.3,415.9 -240.2,418.4 -237.1,418.2 -236.5,411.1 -256.9,411.7 -257.7,428.6 -243.9,428 -243.4,435.5 -252.3,436 -253,432.9 "/>
<polygon id="XMLID_19_" class="st0" points="-233.8,415.3 -234.6,436.8 -217.5,436.8 -218.1,417.4 -221.9,418.2 -221,431.2 
	-229.2,432.7 -230.9,414.7 "/>
<polygon id="XMLID_18_" class="st0" points="-222.8,429.3 -224.2,419.2 -226.7,418.2 -226.7,429.8 "/>
<polygon id="XMLID_17_" class="st0" points="-215.2,410.4 -214.6,438.5 -197.7,438.5 -197.7,432.1 -199.8,420.7 -209.7,422.7 
	-210.9,411.7 "/>
<polygon id="XMLID_16_" class="st1" points="-203.1,433.9 -204.2,424.4 -209.3,425.3 -209.3,434.7 "/>
<polygon id="XMLID_15_" class="st0" points="-195.1,420.8 -195.1,436.8 -188.7,436.8 -190.4,420.1 "/>
<rect id="XMLID_14_" x="-195.1" y="411.1" class="st0" width="6.3" height="5.5"/>
<polygon id="XMLID_13_" class="st0" points="-186.8,420.1 -184.8,437.4 -172.5,437.4 -172.5,434.7 -180.6,433.8 -180.9,430.8 
	-178.5,430.8 -174.6,430.1 -171.8,430.4 -171.2,423.1 -170,421.9 -171.8,419.1 "/>
<polygon id="XMLID_11_" class="st0" points="-167.5,436.8 -168.5,417.3 -162.6,418 -156.6,427.1 -156.6,415.6 -153,415.6 
	-153,436.8 -156.2,436.8 -163.4,426.2 -162.4,436.8 "/>
<polygon id="XMLID_10_" class="st0" points="-140.3,425.3 -143.7,424.6 -145.1,432.3 -138.3,433 -140.2,411.1 -135.2,409.6 
	-132.2,438.5 -148.7,438.5 -150.1,430 -149,422.3 -140.2,422.9 "/>
<polygon id="XMLID_12_" class="st2" points="-176.3,428.3 -180.9,428.3 -181.5,422.3 -176.3,422.3 "/>
<polygon id="XMLID_4_" class="st0" points="-36.1,428.9 -39.2,429.3 -40.4,417.2 -39.2,417.2 "/>
<g>
	<polygon id="XMLID_8_" class="st3" points="-101,423.8 -98.5,424.4 -98.5,422.9 -92.2,422 -92.2,434.4 -97.8,434.4 -98.3,430.7 
		-96,430.8 -95.6,431.8 -93.6,431.8 -93.6,427.7 -101.5,426.9 -101.5,438.4 -86.9,438.4 -87.7,418.1 -100.9,419.5 	"/>
	<polygon id="XMLID_7_" class="st3" points="-85,411.9 -84.4,438.8 -75.1,438.8 -75.1,436.2 -79.5,435.7 -80,412.4 	"/>
	<polygon id="XMLID_6_" class="st0" points="-66.7,431.2 -66.7,440.3 -48.4,440.3 -50.1,423.8 -62.1,424.9 -63,418.6 -53.2,418.6 
		-52.9,420.2 -50.3,420.1 -50.5,412.4 -67.3,413.7 -66.3,428.7 -54.4,428.7 -53.5,435.1 -61.7,436.8 -62.5,434.1 -57.8,433.1 
		-58.7,430.1 	"/>
	<polygon id="XMLID_5_" class="st0" points="-46.7,417.2 -46,438.4 -31.6,438.4 -33.2,418.1 -35.7,418.1 -35,430.8 -41.1,430.8 
		-43.7,417.2 	"/>
	<polygon id="XMLID_3_" class="st0" points="-30.4,418.1 -29.5,439.9 -25.5,439.9 -25.5,431.2 -23.3,430.8 -17.4,438.8 -12.7,438.8 
		-18.2,430.1 -16,430.8 -15,422 -13.7,420.4 -15.6,416.6 	"/>
</g>
<polygon id="XMLID_2_" class="st2" points="-25.1,427.8 -25.1,420.9 -20,420.9 -20.6,427.8 "/>
</svg>
