
<svg version="1.1" id="logo-vertical-sualsur" xmlns="http://www.w3.org/2000/svg" xmlns:xlink="http://www.w3.org/1999/xlink" x="0px" y="0px"
	 viewBox="-169 13.5 159.3 75.5" style="enable-background:new -169 13.5 159.3 75.5;" xml:space="preserve">
<style type="text/css">
	.st0{fill:#BD4136;}
	.st1{fill:#1E1E1E;}
	.st2{fill:#A98A58;}
</style>
<polygon id="XMLID_22_" class="st0" points="-18.8,30.8 -17.6,49.8 -32.5,49.8 -33.5,31.5 "/>
<polygon id="XMLID_9_" class="st1" points="-29.1,44.4 -29.1,35.3 -22.7,34.6 -21.8,44.4 "/>
<polygon id="XMLID_21_" class="st0" points="-159.9,45.7 -158.6,52.5 -140.1,52.5 -140.9,36.5 -155.1,37.6 -154.9,29.8 -143.3,28.9 
	-143.2,31.4 -140.1,31.2 -139.5,24.1 -159.9,24.7 -160.7,41.6 -146.9,41 -146.4,48.5 -155.3,49 -156,45.9 "/>
<polygon id="XMLID_20_" class="st0" points="-159.9,45.7 -158.6,52.5 -140.1,52.5 -140.9,36.5 -155.1,37.6 -154.9,29.8 -143.3,28.9 
	-143.2,31.4 -140.1,31.2 -139.5,24.1 -159.9,24.7 -160.7,41.6 -146.9,41 -146.4,48.5 -155.3,49 -156,45.9 "/>
<polygon id="XMLID_19_" class="st0" points="-136.8,28.3 -137.6,49.8 -120.5,49.8 -121.1,30.4 -124.9,31.2 -124,44.2 -132.2,45.7 
	-133.9,27.7 "/>
<polygon id="XMLID_18_" class="st0" points="-125.8,42.3 -127.2,32.2 -129.7,31.2 -129.7,42.8 "/>
<polygon id="XMLID_17_" class="st0" points="-118.2,23.4 -117.6,51.5 -100.7,51.5 -100.7,45.1 -102.8,33.7 -112.7,35.7 -113.9,24.7 
	"/>
<polygon id="XMLID_16_" class="st1" points="-106.1,46.9 -107.2,37.4 -112.3,38.3 -112.3,47.7 "/>
<polygon id="XMLID_15_" class="st0" points="-98.1,33.8 -98.1,49.8 -91.7,49.8 -93.4,33.1 "/>
<rect id="XMLID_14_" x="-98.1" y="24.1" class="st0" width="6.3" height="5.5"/>
<polygon id="XMLID_13_" class="st0" points="-89.8,33.1 -87.8,50.4 -75.5,50.4 -75.5,47.7 -83.6,46.8 -83.9,43.8 -81.5,43.8 
	-77.6,43.1 -74.8,43.4 -74.2,36.1 -73,34.9 -74.8,32.1 "/>
<polygon id="XMLID_11_" class="st0" points="-70.5,49.8 -71.5,30.3 -65.6,31 -59.6,40.1 -59.6,28.6 -56,28.6 -56,49.8 -59.2,49.8 
	-66.4,39.2 -65.4,49.8 "/>
<polygon id="XMLID_10_" class="st0" points="-43.3,38.3 -46.7,37.6 -48.1,45.3 -41.3,46 -43.2,24.1 -38.2,22.6 -35.2,51.5 
	-51.7,51.5 -53.1,43 -52,35.3 -43.2,35.9 "/>
<polygon id="XMLID_8_" class="st2" points="-136,66.6 -133.5,67.2 -133.5,65.7 -127.2,64.8 -127.2,77.2 -132.8,77.2 -133.3,73.5 
	-131,73.6 -130.6,74.6 -128.6,74.6 -128.6,70.5 -136.5,69.7 -136.5,81.2 -121.9,81.2 -122.7,60.9 -135.9,62.3 "/>
<polygon id="XMLID_7_" class="st2" points="-120,54.7 -119.4,81.6 -110.1,81.6 -110.1,79 -114.5,78.5 -115,55.2 "/>
<polygon id="XMLID_6_" class="st0" points="-101.7,74 -101.7,83.1 -83.4,83.1 -85.1,66.6 -97.1,67.7 -98,61.4 -88.2,61.4 -87.9,63 
	-85.3,62.9 -85.5,55.2 -102.3,56.5 -101.3,71.5 -89.4,71.5 -88.5,77.9 -96.7,79.6 -97.5,76.9 -92.8,75.9 -93.7,72.9 "/>
<polygon id="XMLID_5_" class="st0" points="-81.7,60 -81,81.2 -66.6,81.2 -68.2,60.9 -70.7,60.9 -70,73.6 -76.1,73.6 -78.7,60 "/>
<polygon id="XMLID_4_" class="st0" points="-71.1,71.7 -74.2,72.1 -75.4,60 -74.2,60 "/>
<polygon id="XMLID_3_" class="st0" points="-65.4,60.9 -64.5,82.7 -60.5,82.7 -60.5,74 -58.3,73.6 -52.4,81.6 -47.7,81.6 
	-53.2,72.9 -51,73.6 -50,64.8 -48.7,63.2 -50.6,59.4 "/>
<polygon id="XMLID_12_" class="st1" points="-79.3,41.3 -83.9,41.3 -84.5,35.3 -79.3,35.3 "/>
<polygon id="XMLID_2_" class="st1" points="-60.1,70.6 -60.1,63.7 -55,63.7 -55.6,70.6 "/>
</svg>
